<?xml version="1.0" encoding="UTF-8"?>
<svg version="1.1" xmlns="http://www.w3.org/2000/svg" width="512" height="512">
<path d="M0 0 C17.99212712 14.88294124 27.34045682 31.97810153 34 54 C34.23074219 53.12859375 34.46148437 52.2571875 34.69921875 51.359375 C41.12717058 27.88337702 53.40975971 7.36118644 74.99121094 -5.15478516 C94.97049079 -15.94813487 118.20144655 -19.98014561 140.5625 -14.5 C153.43157843 -10.6406354 164.98145329 -5.00907337 175 4 C175.59554688 4.45503906 176.19109375 4.91007812 176.8046875 5.37890625 C191.46147063 16.6923218 200.71791972 36.2059765 204 54 C204.3403125 52.87464844 204.680625 51.74929687 205.03125 50.58984375 C209.6500672 35.77587207 215.46723413 22.64799991 226 11 C226.63679688 10.29359375 227.27359375 9.5871875 227.9296875 8.859375 C241.82498025 -5.76137481 262.23569764 -15.56096309 282.45703125 -16.23828125 C310.00556418 -16.72490465 331.25121894 -10.12160092 351.625 9.125 C368.62623789 26.70830595 375.52240073 48.55425407 375.42407227 72.66796875 C374.89190513 96.46318608 364.72183342 116.417709 348 133 C334.09647607 146.0444444 313.83342529 155.32648528 294.5625 155.0625 C293.69753906 155.05347656 292.83257812 155.04445313 291.94140625 155.03515625 C291.30074219 155.02355469 290.66007812 155.01195312 290 155 C290.03480469 155.54785156 290.06960938 156.09570312 290.10546875 156.66015625 C290.80649228 177.19013098 281.91526736 196.99623832 268.5625 212.25 C258.86259592 222.58569612 248.10920343 230.33506956 234.8125 235.375 C234.18408203 235.61355713 233.55566406 235.85211426 232.90820312 236.09790039 C212.59307212 243.36418368 188.24879492 242.30231327 168.69433594 233.2644043 C145.89821536 222.08957171 130.68240227 204.60436143 122 181 C120.44904742 176.30967964 119.75184727 171.96305451 120 167 C119.34 167 118.68 167 118 167 C117.98582031 167.55945313 117.97164062 168.11890625 117.95703125 168.6953125 C116.76076991 188.80543563 104.81911635 205.91586068 90.8203125 219.55078125 C71.55440478 236.28170111 48.88367554 241.28871412 23.93310547 240.21582031 C1.55553705 238.56926043 -17.25936276 226.57970867 -32.25390625 210.59765625 C-43.94221679 196.85073916 -52.31210144 177.7834051 -52.0625 159.5625 C-52.05347656 158.69753906 -52.04445313 157.83257812 -52.03515625 156.94140625 C-52.02355469 156.30074219 -52.01195313 155.66007813 -52 155 C-52.54785156 155.03480469 -53.09570312 155.06960938 -53.66015625 155.10546875 C-74.19013098 155.80649228 -93.99623832 146.91526736 -109.25 133.5625 C-119.58569612 123.86259592 -127.33506956 113.10920343 -132.375 99.8125 C-132.61355713 99.18408203 -132.85211426 98.55566406 -133.09790039 97.90820312 C-140.36418368 77.59307212 -139.30231327 53.24879492 -130.2644043 33.69433594 C-119.20016671 11.12382383 -101.6366578 -4.66707657 -78 -13 C-52.27317405 -21.52180935 -21.58213408 -16.02813035 0 0 Z M-102 30 C-113.12135031 43.28885246 -116.32391441 61.1478269 -115 78 C-112.72303201 94.35739379 -104.14701729 108.97302933 -91.37744141 119.31396484 C-80.49894475 127.52133107 -66.92122656 133.27153374 -53.125 133.0625 C-52.34382813 133.05347656 -51.56265625 133.04445313 -50.7578125 133.03515625 C-50.17773438 133.02355469 -49.59765625 133.01195312 -49 133 C-48.63648437 132.04480469 -48.27296875 131.08960938 -47.8984375 130.10546875 C-39.06032006 107.21495267 -25.67160928 88.79600442 -3 78 C1.93031749 75.81746357 6.94391229 73.86947781 12 72 C13.16148668 55.73918644 6.53019711 39.54836471 -3.89453125 27.3046875 C-15.08193923 15.05873071 -30.30545986 6.66053435 -47.09765625 5.7265625 C-68.95863796 4.99077412 -87.52057447 13.62346284 -102 30 Z M70.53125 27.78515625 C59.60688158 41.6044823 55.51820778 54.68224642 56 72 C57.07314453 72.41958984 57.07314453 72.41958984 58.16796875 72.84765625 C70.15299981 77.6695769 82.57384598 83.17921944 91.6171875 92.703125 C92.92716967 94.22802607 92.92716967 94.22802607 95 94 C95.27585938 94.60070312 95.55171875 95.20140625 95.8359375 95.8203125 C97.02796876 98.26820581 97.02796876 98.26820581 99.625 100.875 C107.71234564 110.14875331 112.33589631 121.4087489 116 133 C117.98 133 119.96 133 122 133 C122.35191406 131.98421875 122.70382812 130.9684375 123.06640625 129.921875 C127.38660424 117.74960581 132.40806345 107.15786975 141.49609375 97.7421875 C143.21781437 96.1312599 143.21781437 96.1312599 143 94 C143.60070312 93.72414063 144.20140625 93.44828125 144.8203125 93.1640625 C147.26820581 91.97203124 147.26820581 91.97203124 149.875 89.375 C158.14179438 82.15038697 168.30181175 77.55725637 178.55078125 73.91015625 C180.91301116 73.2258252 180.91301116 73.2258252 182 72 C183.30398941 55.5998255 177.77601703 41.11656475 167.8125 28.1875 C157.49841252 16.34023736 142.88083498 7.42317582 127 6 C105.15626642 4.73669259 85.43953899 10.96615301 70.53125 27.78515625 Z M241 28 C232.00299958 39.11000832 225.71816434 53.39884616 225.9375 67.875 C225.94652344 68.65617187 225.95554687 69.43734375 225.96484375 70.2421875 C225.97644531 70.82226562 225.98804688 71.40234375 226 72 C226.95519531 72.36351562 227.91039062 72.72703125 228.89453125 73.1015625 C251.78504733 81.93967994 270.20399558 95.32839072 281 118 C283.18253643 122.93031749 285.13052219 127.94391229 287 133 C303.26081356 134.16148668 319.45163529 127.53019711 331.6953125 117.10546875 C343.94126929 105.91806077 352.33946565 90.69454014 353.2734375 73.90234375 C353.56513784 65.20578418 352.78030175 57.30479744 350 49 C349.73316406 48.15179688 349.46632813 47.30359375 349.19140625 46.4296875 C343.97848168 31.64815027 331.78026304 19.12039299 318 12 C290.74557365 0.58979548 261.0591679 5.14353796 241 28 Z M31 91 C30.63648438 91.95519531 30.27296875 92.91039062 29.8984375 93.89453125 C21.06032006 116.78504733 7.67160928 135.20399558 -15 146 C-19.93031749 148.18253643 -24.94391229 150.13052219 -30 152 C-31.16148668 168.26081356 -24.53019711 184.45163529 -14.10546875 196.6953125 C-2.91806077 208.94126929 12.30545986 217.33946565 29.09765625 218.2734375 C47.48859618 218.89243257 63.56100826 213.10629367 77.4140625 200.8671875 C88.50140543 190.22482154 96.58584769 175.68962692 97.09765625 160.0078125 C97.08605469 159.05648437 97.07445312 158.10515625 97.0625 157.125 C97.05347656 156.15820312 97.04445313 155.19140625 97.03515625 154.1953125 C97.02355469 153.47085938 97.01195312 152.74640625 97 152 C96.44054687 151.79246094 95.88109375 151.58492187 95.3046875 151.37109375 C83.90203569 146.98968895 73.3023793 141.99481594 64 134 C63.39929688 133.53078125 62.79859375 133.0615625 62.1796875 132.578125 C49.32190527 122.3149625 41.36953586 106.28252513 36 91 C34.35 91 32.7 91 31 91 Z M202 91 C201.731875 91.69222656 201.46375 92.38445312 201.1875 93.09765625 C190.92918763 118.70969272 176.64042931 136.49162126 151 148 C147.6912497 149.40497186 144.3702172 150.74975814 141 152 C140.06271794 169.63478845 146.51774988 185.26734327 158.1328125 198.4140625 C169.73923681 210.50577284 184.89253842 217.83951724 201.80957031 218.29272461 C219.66930016 218.45869961 235.55394055 212.91829163 248.74707031 200.53198242 C259.77774634 189.51790774 267.49553086 174.19691265 268.09765625 158.4453125 C268.08605469 157.67960937 268.07445312 156.91390625 268.0625 156.125 C268.05347656 155.34382813 268.04445313 154.56265625 268.03515625 153.7578125 C268.02355469 153.17773438 268.01195312 152.59765625 268 152 C267.04480469 151.63648438 266.08960938 151.27296875 265.10546875 150.8984375 C242.21495267 142.06032006 223.79600442 128.67160928 213 106 C210.81746357 101.06968251 208.86947781 96.05608771 207 91 C205.35 91 203.7 91 202 91 Z M64 100 C69.98013533 110.2783576 76.95347467 117.59739882 87 124 C87.33 123.34 87.66 122.68 88 122 C86.52870049 120.02355433 85.05249787 118.05130229 83.56640625 116.0859375 C82.41614127 114.55416319 81.29367917 113.00140848 80.1875 111.4375 C75.64584141 106.37679471 70.42402111 102.29995817 64 100 Z M172 100 C170.77004051 100.9156026 169.54107614 101.83254203 168.3125 102.75 C167.62800781 103.26046875 166.94351562 103.7709375 166.23828125 104.296875 C165.13033203 105.13992187 165.13033203 105.13992187 164 106 C162.76056641 106.93585938 162.76056641 106.93585938 161.49609375 107.890625 C158.90378263 110.08131046 156.86636862 112.35050035 154.75 115 C154.06421875 115.845625 153.3784375 116.69125 152.671875 117.5625 C151.12338994 119.82010438 150.42039379 121.32926298 150 124 C160.43557909 118.78221046 167.83340998 110.78078351 174 101 C173.34 100.67 172.68 100.34 172 100 Z M-12.8125 111.5625 C-17.88949595 116.57589705 -17.88949595 116.57589705 -20 123 C-10.73304436 119.85055422 -3.16860538 111.09519981 2 103 C2 102.34 2 101.68 2 101 C-3.2943591 101 -9.16257252 108.02317638 -12.8125 111.5625 Z M236 101 C239.14944578 110.26695564 247.90480019 117.83139462 256 123 C256.66 123 257.32 123 258 123 C254.85055422 113.73304436 246.09519981 106.16860538 238 101 C237.34 101 236.68 101 236 101 Z " fill="#83B64C" transform="translate(137,144)"/>
<path d="M0 0 C17.34593266 13.39303646 31.05623464 32.70997552 33.97216797 54.92529297 C36.24545867 78.80773247 32.79117324 101.52342021 18.1875 121.1875 C2.99222842 139.55720619 -16.78198153 152.44519377 -40.8125 155.1875 C-64.47862567 156.48951986 -88.80477 150.86826895 -106.87451172 134.92285156 C-119.91494921 122.96503067 -130.29304101 108.821456 -133.8125 91.1875 C-136.7825 91.6825 -136.7825 91.6825 -139.8125 92.1875 C-139.35090593 88.42880543 -138.89052369 84.68244419 -138.30078125 80.94140625 C-137.86341325 77.57892107 -137.64610741 74.31693663 -137.52294922 70.93505859 C-136.50064269 44.04547591 -126.88225518 22.00530377 -107.0625 3.5625 C-99.38035203 -2.86449387 -90.95314596 -7.65179605 -81.625 -11.1875 C-80.99658203 -11.42605713 -80.36816406 -11.66461426 -79.72070312 -11.91040039 C-52.62652533 -21.60140219 -23.22787765 -16.04535662 0 0 Z M-99.8125 28.1875 C-108.80950042 39.29750832 -115.09433566 53.58634616 -114.875 68.0625 C-114.86597656 68.84367187 -114.85695313 69.62484375 -114.84765625 70.4296875 C-114.83605469 71.00976562 -114.82445312 71.58984375 -114.8125 72.1875 C-113.85730469 72.55101562 -112.90210938 72.91453125 -111.91796875 73.2890625 C-89.02745267 82.12717994 -70.60850442 95.51589072 -59.8125 118.1875 C-57.62996357 123.11781749 -55.68197781 128.13141229 -53.8125 133.1875 C-37.55168644 134.34898668 -21.36086471 127.71769711 -9.1171875 117.29296875 C3.12876929 106.10556077 11.52696565 90.88204014 12.4609375 74.08984375 C12.75263784 65.39328418 11.96780175 57.49229744 9.1875 49.1875 C8.92066406 48.33929688 8.65382813 47.49109375 8.37890625 46.6171875 C3.16598168 31.83565027 -9.03223696 19.30789299 -22.8125 12.1875 C-50.06692635 0.77729548 -79.7533321 5.33103796 -99.8125 28.1875 Z M-104.8125 101.1875 C-101.66305422 110.45445564 -92.90769981 118.01889462 -84.8125 123.1875 C-84.1525 123.1875 -83.4925 123.1875 -82.8125 123.1875 C-85.96194578 113.92054436 -94.71730019 106.35610538 -102.8125 101.1875 C-103.4725 101.1875 -104.1325 101.1875 -104.8125 101.1875 Z " fill="#D43636" transform="translate(477.8125,143.8125)"/>
<path d="M0 0 C18.31352316 15.14879743 31.35431679 34.99593674 34 59 C34.06252492 60.97828849 34.08693365 62.95837451 34.0625 64.9375 C34.05347656 65.89527344 34.04445312 66.85304688 34.03515625 67.83984375 C34.01775391 68.90912109 34.01775391 68.90912109 34 70 C34.93005859 69.94779297 34.93005859 69.94779297 35.87890625 69.89453125 C58.14564033 69.21388872 78.94193232 78.93346964 95 94 C103.99642356 103.44916565 116 119.35275448 116 133 C107.20760412 132.80261968 98.88891717 130.9796321 91 127 C88.7734375 124.578125 88.7734375 124.578125 87 122 C86.49597656 121.319375 85.99195313 120.63875 85.47265625 119.9375 C85.00730469 119.298125 84.54195312 118.65875 84.0625 118 C79.74230883 112.23254478 74.60321823 107.4962688 69 103 C68.06607422 102.23816406 68.06607422 102.23816406 67.11328125 101.4609375 C62.37429957 97.94055111 57.51099461 95.9132836 51.9375 94.125 C51.27693604 93.909646 50.61637207 93.69429199 49.93579102 93.47241211 C45.13677628 92.03680941 40.99974281 91.90788601 36 92 C33 91.5 33 91.5 31 91 C30.814375 91.93005859 30.814375 91.93005859 30.625 92.87890625 C27.46592026 106.44320489 20.29797555 117.76712746 11 128 C10.44957031 128.63164062 9.89914063 129.26328125 9.33203125 129.9140625 C-0.75580881 140.82387471 -15.48326866 149.15358209 -30 152 C-29.58706584 141.51147225 -27.97543376 130.44373818 -20 123 C-17.80777233 121.48811885 -15.57481078 120.05286395 -13.33203125 118.6171875 C-0.88036731 109.98236527 7.96721206 95.34750092 10.71484375 80.515625 C12.81035174 62.02922575 8.53983832 44.57155389 -2.875 29.6875 C-13.03413285 17.75907997 -27.18754943 8.97413704 -43 7 C-61.72844662 5.526195 -78.1994188 10.15460972 -93 22 C-104.4310519 31.96396503 -112.22203077 45.78848545 -114 61 C-115.20252501 80.06297844 -111.05664817 96.83081004 -98.4375 111.75 C-84.88749405 125.79124484 -68.09062978 131.1857132 -49 133 C-49.30694459 136.10474234 -49.621514 139.20866586 -49.9375 142.3125 C-50.02451172 143.19357422 -50.11152344 144.07464844 -50.20117188 144.98242188 C-50.28818359 145.82998047 -50.37519531 146.67753906 -50.46484375 147.55078125 C-50.543396 148.33106689 -50.62194824 149.11135254 -50.70288086 149.9152832 C-51 152 -51 152 -52 155 C-73.07476765 156.33886759 -93.60467331 147.25803373 -109.25 133.5625 C-119.58569612 123.86259592 -127.33506956 113.10920343 -132.375 99.8125 C-132.61355713 99.18408203 -132.85211426 98.55566406 -133.09790039 97.90820312 C-140.36418368 77.59307212 -139.30231327 53.24879492 -130.2644043 33.69433594 C-119.20016671 11.12382383 -101.6366578 -4.66707657 -78 -13 C-52.27317405 -21.52180935 -21.58213408 -16.02813035 0 0 Z " fill="#429BE9" transform="translate(137,144)"/>
<path d="M0 0 C-0.19864212 8.68607799 -1.28731782 18.46974013 -6 26 C-9.09205478 28.8128254 -12.22408875 30.9118759 -15.7890625 33.0546875 C-27.50890592 40.1550306 -36.29368624 53.94095674 -39.625 67.125 C-43.45253053 84.47086365 -40.31622733 101.909429 -31 117 C-21.17889458 131.16113749 -7.23077585 141.03140887 9.80859375 144.6015625 C28.47413604 146.93189948 45.34025004 143.11424601 60.65234375 131.87890625 C74.06096457 121.14754749 81.94662617 106.82755716 84.12402344 89.81445312 C84.47851135 86.54544008 84.76456764 83.2798163 85 80 C87.72947644 80.30996259 90.45855985 80.62287975 93.1875 80.9375 C93.95642578 81.02451172 94.72535156 81.11152344 95.51757812 81.20117188 C99.38772828 81.64964421 103.19186624 82.1529001 107 83 C108.4379532 103.730492 100.23571074 123.29298959 87 139 C73.56766107 154.31158507 54.61949891 166.03729786 34 168 C8.57220164 169.63778279 -14.89924788 165.35017265 -34.63378906 148.09326172 C-51.24513275 133.06370218 -62.89617428 112.71484074 -64.16796875 90 C-64.33922524 63.69500299 -56.99911672 40.65679619 -38.8125 21.375 C-29.52709763 12.47184404 -13.35773925 0 0 0 Z " fill="#FED041" transform="translate(149,216)"/>
<path d="M0 0 C1.46702098 1.28179106 2.92643242 2.57239075 4.375 3.875 C5.26832031 4.55755859 5.26832031 4.55755859 6.1796875 5.25390625 C20.77939302 16.52326419 30.20928841 36.10717619 33.375 53.875 C35.16092959 77.54287793 32.10500281 103.24668211 16.13671875 121.90625 C15.26466797 122.88078125 15.26466797 122.88078125 14.375 123.875 C13.78332031 124.6071875 13.19164062 125.339375 12.58203125 126.09375 C1.82859805 139.04221389 -13.31499554 147.92903118 -29.625 151.875 C-30.36084313 142.4930001 -27.37457063 132.95151043 -22.625 124.875 C-20.42578125 123.00390625 -20.42578125 123.00390625 -17.9375 121.4375 C-9.20828521 115.62648201 -3.35587737 109.6679638 2.375 100.875 C2.8390625 100.27429688 3.303125 99.67359375 3.78125 99.0546875 C12.13757594 87.69212235 12.22472791 72.22814528 10.375 58.875 C7.77982965 43.3240955 -1.01154854 28.89300708 -13.25 19.125 C-28.34726886 8.35485239 -44.90528289 5.0287413 -63.05078125 7.3046875 C-79.77263713 10.61230734 -93.73310315 19.85031893 -103.58203125 33.65625 C-111.46788868 46.08062193 -113.77730842 57.44193553 -114.625 71.875 C-115.29144531 71.81441406 -115.95789063 71.75382812 -116.64453125 71.69140625 C-118.02705078 71.56572266 -118.02705078 71.56572266 -119.4375 71.4375 C-120.43007812 71.34726563 -121.42265625 71.25703125 -122.4453125 71.1640625 C-123.49460938 71.06867188 -124.54390625 70.97328125 -125.625 70.875 C-127.6875 70.6875 -129.75 70.5 -131.8125 70.3125 C-133.19501953 70.18681641 -133.19501953 70.18681641 -134.60546875 70.05859375 C-135.27191406 69.99800781 -135.93835938 69.93742187 -136.625 69.875 C-137.12785023 59.11959239 -136.31770883 50.13927289 -132.625 39.875 C-132.274375 38.85792969 -131.92375 37.84085938 -131.5625 36.79296875 C-124.07398007 16.9535913 -108.31366708 0.61443357 -89.3125 -8.5 C-60.77567705 -21.36376563 -25.1795773 -19.91475659 0 0 Z " fill="#181818" transform="translate(307.625,144.125)"/>
<path d="M0 0 C26.97797837 1.29960361 47.95238781 10.89697992 66.31640625 30.46875 C74.48928022 40.06507952 80.52951843 51.62185795 83 64 C73.66546221 64.73212061 64.00522653 61.79868238 56 57 C54.19921875 54.6171875 54.19921875 54.6171875 52.6875 51.875 C45.08649337 39.35472718 32.21032537 28.97326442 17.9375 24.9375 C16.29855957 24.59066015 14.65282006 24.27314733 13 24 C11.205625 23.6596875 11.205625 23.6596875 9.375 23.3125 C5.2366794 22.92932217 1.15220714 22.91526108 -3 23 C-2.06024943 15.32537035 -1.0277503 7.66322553 0 0 Z " fill="#82B54A" transform="translate(341,213)"/>
<path d="M0 0 C5.4826073 -0.25051078 9.90908594 0.53595821 15.125 2.1875 C15.81464844 2.38408203 16.50429687 2.58066406 17.21484375 2.78320312 C24.22933271 4.96265715 27.69621202 9.32709938 31.75 15.3125 C40.5452647 27.5601116 53.20627187 36.63163398 68 40 C73.64827591 40.91617505 79.30131759 41.44851461 85 42 C84.01 48.93 83.02 55.86 82 63 C59.93987096 64.00273314 40.40820089 56.04173043 23.75 41.625 C13.08805216 31.59222611 3.88538381 18.31457193 0 4 C0 2.68 0 1.36 0 0 Z " fill="#1B1B1B" transform="translate(174,235)"/>
<path d="M0 0 C22.36522318 -1.12450843 42.50587234 7.16709022 59.40625 21.56640625 C70.27606116 31.76503931 79.10499587 45.52185963 83 60 C83 60.99 83 61.98 83 63 C74.20760412 62.80261968 65.88891717 60.9796321 58 57 C55.7734375 54.578125 55.7734375 54.578125 54 52 C53.49597656 51.319375 52.99195313 50.63875 52.47265625 49.9375 C52.00730469 49.298125 51.54195312 48.65875 51.0625 48 C46.74230883 42.23254478 41.60321823 37.4962688 36 33 C35.37738281 32.49210937 34.75476563 31.98421875 34.11328125 31.4609375 C29.37429957 27.94055111 24.51099461 25.9132836 18.9375 24.125 C18.27693604 23.909646 17.61637207 23.69429199 16.93579102 23.47241211 C12.14767416 22.04006946 7.99035446 21.86269924 3 22 C0 21.5 0 21.5 -2 21 C-1.93941406 20.40574219 -1.87882813 19.81148437 -1.81640625 19.19921875 C-1.16982122 12.80300071 -0.57215654 6.40328386 0 0 Z " fill="#FDCF40" transform="translate(170,214)"/>
</svg>
